<svg xmlns="http://www.w3.org/2000/svg" fill="none" viewBox="0 0 30 31" height="31" width="30">
<path stroke-linejoin="round" stroke-linecap="round" stroke-width="1.875" stroke="black" d="M19.6875 8C19.6875 9.2432 19.1936 10.4355 18.3145 11.3146C17.4355 12.1936 16.2432 12.6875 15 12.6875C13.7568 12.6875 12.5645 12.1936 11.6854 11.3146C10.8063 10.4355 10.3125 9.2432 10.3125 8C10.3125 6.7568 10.8063 5.56451 11.6854 4.68544C12.5645 3.80636 13.7568 3.3125 15 3.3125C16.2432 3.3125 17.4355 3.80636 18.3145 4.68544C19.1936 5.56451 19.6875 6.7568 19.6875 8ZM5.62622 25.6475C5.66639 23.1879 6.67164 20.8427 8.42519 19.1176C10.1787 17.3924 12.5401 16.4256 15 16.4256C17.4599 16.4256 19.8212 17.3924 21.5747 19.1176C23.3283 20.8427 24.3336 23.1879 24.3737 25.6475C21.433 26.996 18.2352 27.6919 15 27.6875C11.655 27.6875 8.47997 26.9575 5.62622 25.6475Z"></path>
</svg>
