<svg xmlns="http://www.w3.org/2000/svg" fill="none" viewBox="0 0 30 30" height="30" width="30">
<path stroke-linejoin="round" stroke-linecap="round" stroke-width="1.875" stroke="black" d="M19.6878 13.125V7.5C19.6878 6.2568 19.1939 5.06451 18.3148 4.18544C17.4358 3.30636 16.2435 2.8125 15.0003 2.8125C13.7571 2.8125 12.5648 3.30636 11.6857 4.18544C10.8066 5.06451 10.3128 6.2568 10.3128 7.5V13.125M24.5078 10.6337L26.0865 25.6337C26.174 26.465 25.524 27.1875 24.6878 27.1875H5.31279C5.11555 27.1877 4.92047 27.1464 4.74022 27.0663C4.55998 26.9862 4.3986 26.8691 4.26657 26.7226C4.13453 26.5761 4.0348 26.4034 3.97385 26.2158C3.9129 26.0282 3.8921 25.8299 3.91279 25.6337L5.49279 10.6337C5.52923 10.2882 5.69232 9.96838 5.9506 9.73595C6.20888 9.50352 6.54407 9.37494 6.89154 9.375H23.109C23.829 9.375 24.4328 9.91875 24.5078 10.6337ZM10.7815 13.125C10.7815 13.2493 10.7322 13.3685 10.6442 13.4565C10.5563 13.5444 10.4371 13.5938 10.3128 13.5938C10.1885 13.5938 10.0692 13.5444 9.98133 13.4565C9.89342 13.3685 9.84404 13.2493 9.84404 13.125C9.84404 13.0007 9.89342 12.8815 9.98133 12.7935C10.0692 12.7056 10.1885 12.6562 10.3128 12.6562C10.4371 12.6562 10.5563 12.7056 10.6442 12.7935C10.7322 12.8815 10.7815 13.0007 10.7815 13.125ZM20.1565 13.125C20.1565 13.2493 20.1072 13.3685 20.0192 13.4565C19.9313 13.5444 19.8121 13.5938 19.6878 13.5938C19.5635 13.5938 19.4442 13.5444 19.3563 13.4565C19.2684 13.3685 19.219 13.2493 19.219 13.125C19.219 13.0007 19.2684 12.8815 19.3563 12.7935C19.4442 12.7056 19.5635 12.6562 19.6878 12.6562C19.8121 12.6562 19.9313 12.7056 20.0192 12.7935C20.1072 12.8815 20.1565 13.0007 20.1565 13.125Z"></path>
</svg>
