<svg xmlns="http://www.w3.org/2000/svg" fill="none" viewBox="0 0 30 31" height="31" width="30">
<path stroke-linejoin="round" stroke-linecap="round" stroke-width="1.875" stroke="black" d="M26.25 14.5625V24.875C26.25 25.3723 26.0525 25.8492 25.7008 26.2008C25.3492 26.5525 24.8723 26.75 24.375 26.75H6.5625C6.06522 26.75 5.58831 26.5525 5.23667 26.2008C4.88504 25.8492 4.6875 25.3723 4.6875 24.875V14.5625M15 6.59375C15 5.94478 14.8076 5.31039 14.447 4.77079C14.0865 4.23119 13.574 3.81062 12.9744 3.56227C12.3749 3.31392 11.7151 3.24894 11.0786 3.37555C10.4421 3.50216 9.85745 3.81467 9.39856 4.27356C8.93966 4.73245 8.62716 5.31711 8.50055 5.95361C8.37394 6.59011 8.43892 7.24986 8.68727 7.84943C8.93562 8.449 9.35619 8.96146 9.89579 9.32201C10.4354 9.68256 11.0698 9.875 11.7188 9.875H15M15 6.59375V9.875M15 6.59375C15 5.94478 15.1924 5.31039 15.553 4.77079C15.9135 4.23119 16.426 3.81062 17.0256 3.56227C17.6251 3.31392 18.2849 3.24894 18.9214 3.37555C19.5579 3.50216 20.1426 3.81467 20.6014 4.27356C21.0603 4.73245 21.3728 5.31711 21.4995 5.95361C21.6261 6.59011 21.5611 7.24986 21.3127 7.84943C21.0644 8.449 20.6438 8.96146 20.1042 9.32201C19.5646 9.68256 18.9302 9.875 18.2812 9.875H15M15 9.875V26.75M4.21875 14.5625H26.7188C27.495 14.5625 28.125 13.9325 28.125 13.1563V11.2813C28.125 10.505 27.495 9.875 26.7188 9.875H4.21875C3.4425 9.875 2.8125 10.505 2.8125 11.2813V13.1563C2.8125 13.9325 3.4425 14.5625 4.21875 14.5625Z"></path>
</svg>
