<svg xmlns="http://www.w3.org/2000/svg" fill="none" viewBox="0 0 20 20" height="20" width="20">
<path fill="#385DC2" d="M10 0C11.0371 5.75183e-05 11.9604 0.482569 12.5303 1.21387C12.5315 1.215 12.5325 1.21617 12.5332 1.21777C12.7078 1.4451 13.0126 1.54137 13.292 1.45605C13.2948 1.45539 13.2968 1.45379 13.2989 1.45312C14.2048 1.18652 15.245 1.32085 16.084 1.91016C16.923 2.49883 17.3761 3.41381 17.3926 4.3291V4.33398C17.3954 4.61732 17.5843 4.86801 17.8623 4.95801C17.8642 4.95862 17.8663 4.95935 17.8682 4.95996C18.763 5.25866 19.5229 5.95693 19.8438 6.91016C20.1639 7.8635 19.9744 8.86034 19.4307 9.61035C19.43 9.61165 19.4284 9.61329 19.4278 9.61523C19.2577 9.84507 19.2577 10.1549 19.4278 10.3848C19.4291 10.3868 19.4313 10.3893 19.4326 10.3906C19.9748 11.1406 20.1639 12.1383 19.8438 13.0908C19.5229 14.044 18.7628 14.743 17.8672 15.041C17.8654 15.0416 17.8641 15.0415 17.8623 15.042C17.5843 15.132 17.3963 15.3833 17.3936 15.666V15.6729C17.3762 16.588 16.9229 17.5022 16.084 18.0908C15.2443 18.6802 14.2039 18.8142 13.2979 18.5469C13.2966 18.5463 13.2949 18.5455 13.293 18.5449C13.0135 18.4596 12.7088 18.5552 12.5342 18.7832C12.5329 18.7845 12.5317 18.7868 12.5303 18.7881C11.9604 19.5187 11.037 19.9999 10 20C8.96297 20 8.03972 19.5184 7.46976 18.7871C7.46838 18.7858 7.46655 18.7842 7.46585 18.7822C7.2913 18.5552 6.9873 18.4598 6.70804 18.5449C6.70544 18.5455 6.70316 18.5462 6.7012 18.5469C5.7953 18.8135 4.75507 18.68 3.91605 18.0908C3.07702 17.5022 2.62405 16.5872 2.60745 15.6719V15.666C2.60452 15.3829 2.41567 15.1329 2.13773 15.043C2.13576 15.0423 2.13383 15.0416 2.13187 15.041C1.23705 14.7424 0.47722 14.0439 0.156282 13.0908C-0.163831 12.1376 0.0248461 11.1406 0.568391 10.3906C0.569065 10.3893 0.570616 10.3877 0.571321 10.3857C0.74175 10.1557 0.74175 9.84524 0.571321 9.61523C0.570041 9.61338 0.568695 9.6116 0.567414 9.61035C0.0250659 8.86034 -0.163888 7.86283 0.156282 6.91016C0.477117 5.95709 1.2365 5.25803 2.13187 4.95996C2.13393 4.95929 2.13565 4.95867 2.13773 4.95801C2.4158 4.868 2.60372 4.61763 2.60648 4.33496V4.32812C2.62378 3.41284 3.07704 2.49879 3.91605 1.91016C4.75566 1.32096 5.79534 1.18693 6.7012 1.4541C6.70256 1.45476 6.70502 1.4554 6.70706 1.45605C6.98652 1.54139 7.29127 1.44578 7.46585 1.21777C7.46719 1.21644 7.46842 1.21418 7.46976 1.21289C8.03972 0.482282 8.96299 0 10 0Z" clip-rule="evenodd" fill-rule="evenodd"></path>
<g clip-path="url(#clip0_2414_819)">
<path fill="white" d="M10.0021 5.41541C7.47571 5.41541 5.41549 7.47563 5.41549 10.002C5.41549 12.5284 7.47571 14.5845 10.0021 14.5845C12.5284 14.5845 14.5846 12.5284 14.5846 10.002C14.5849 9.94693 14.5743 9.89236 14.5534 9.84142C14.5325 9.79047 14.5017 9.74418 14.4629 9.70521C14.424 9.66624 14.3777 9.63536 14.3268 9.61436C14.2759 9.59337 14.2214 9.58267 14.1663 9.58289C14.1115 9.5831 14.0573 9.59411 14.0068 9.6153C13.9563 9.63649 13.9104 9.66743 13.8719 9.70636C13.8333 9.74529 13.8028 9.79144 13.7821 9.84217C13.7614 9.8929 13.7509 9.94721 13.7513 10.002C13.7513 12.078 12.0781 13.7512 10.0021 13.7512C7.92608 13.7512 6.24882 12.078 6.24882 10.002C6.24882 7.92599 7.92608 6.24874 10.0021 6.24874C10.112 6.24831 10.2173 6.20445 10.2951 6.1267C10.3728 6.04896 10.4167 5.94364 10.4171 5.8337C10.4173 5.77898 10.4068 5.72476 10.386 5.67412C10.3653 5.62349 10.3348 5.57744 10.2962 5.53859C10.2577 5.49975 10.2119 5.46888 10.1614 5.44774C10.1109 5.42661 10.0568 5.41562 10.0021 5.41541ZM11.5833 5.72872C11.4206 5.73029 11.267 5.82743 11.2016 5.98751C11.1138 6.2007 11.2152 6.44471 11.4287 6.53194C11.4336 6.53399 11.4367 6.53667 11.4408 6.5384C11.654 6.62864 11.9001 6.52769 11.9885 6.31379C12.0767 6.10145 11.976 5.8578 11.7639 5.76935C11.7579 5.76684 11.7513 5.76258 11.746 5.76038C11.6927 5.73843 11.6375 5.72817 11.5833 5.72872ZM12.9391 6.63041C12.8293 6.63132 12.7243 6.67539 12.6469 6.75329C12.4834 6.91616 12.4834 7.18125 12.6469 7.34411C12.6504 7.34758 12.6524 7.34963 12.6559 7.35309C12.8179 7.51752 13.083 7.51909 13.2467 7.3564C13.4103 7.19353 13.4103 6.92844 13.2467 6.76558C13.2425 6.76132 13.2389 6.75755 13.2346 6.75345C13.1565 6.67479 13.05 6.63051 12.9391 6.63041ZM10.0021 7.08289C9.94702 7.08256 9.89244 7.09316 9.8415 7.11405C9.79056 7.13495 9.74426 7.16573 9.70529 7.20463C9.66632 7.24353 9.63544 7.28976 9.61445 7.34066C9.59345 7.39156 9.58275 7.44612 9.58297 7.50118V10.002C9.58319 10.0793 9.60493 10.1551 9.64574 10.2208C9.68656 10.2864 9.74485 10.3395 9.81409 10.3739L11.4808 11.2072C11.5298 11.2318 11.5832 11.2465 11.6379 11.2504C11.6926 11.2543 11.7476 11.2473 11.7996 11.2299C11.8516 11.2125 11.8997 11.185 11.941 11.149C11.9824 11.113 12.0163 11.0692 12.0407 11.0201C12.0652 10.971 12.0799 10.9176 12.0838 10.8629C12.0877 10.8082 12.0807 10.7533 12.0633 10.7012C12.0459 10.6492 12.0184 10.6012 11.9824 10.5598C11.9464 10.5184 11.9026 10.4846 11.8535 10.4602L10.4171 9.74321V7.50118C10.4173 7.44646 10.4068 7.39224 10.386 7.3416C10.3653 7.29097 10.3348 7.24492 10.2962 7.20607C10.2577 7.16723 10.2119 7.13636 10.1614 7.11522C10.1109 7.09409 10.0568 7.0831 10.0021 7.08289ZM13.8497 7.97888C13.7952 7.97857 13.7397 7.98896 13.6862 8.01143C13.4722 8.09987 13.3713 8.34594 13.4615 8.55912C13.4636 8.56416 13.4663 8.567 13.468 8.57125C13.5552 8.78468 13.7993 8.88694 14.0124 8.79911C14.2259 8.71188 14.3281 8.46787 14.2403 8.25468C14.2379 8.24901 14.2359 8.24429 14.2338 8.23925C14.1684 8.0779 14.0134 7.97983 13.8497 7.97888Z"></path>
</g>
<defs>
<clipPath id="clip0_2414_819">
<rect transform="translate(5.00005 5)" fill="white" height="10" width="10"></rect>
</clipPath>
</defs>
</svg>
