<svg xmlns="http://www.w3.org/2000/svg" fill="none" viewBox="0 0 74 65" height="65" width="74">
<g clip-path="url(#clip0_2829_22731)">
<path fill="#CAD7DB" d="M48.5391 54.4782L48.2034 54.5355L47.163 48.4435C47.3353 48.2063 47.4164 47.9032 47.3635 47.5931L39.3969 0.936819C39.2927 0.326221 38.7078 -0.0880237 38.0972 0.0161708L4.1662 5.80957C4.1662 5.80957 0.291365 6.28241 0 9.75028L8.19843 57.7656C8.95344 62.1877 11.602 61.5052 11.602 61.5052L48.6585 55.1778C48.8343 55.117 48.9616 55.029 48.9302 54.8291C48.8707 54.4503 48.5391 54.4782 48.5391 54.4782Z"></path>
<path fill="#C25857" d="M48.5391 54.4782L48.2034 54.5355L48.0872 53.8546L10.0245 60.3536C9.12921 59.4906 8.92146 57.77 8.92146 57.77C8.51513 54.9396 12.5122 54.6866 12.5122 54.6866L46.4432 48.8929C46.7437 48.8416 46.9965 48.6734 47.1634 48.4435C47.3356 48.2063 47.4167 47.9032 47.3638 47.5931L39.3969 0.936819C39.2927 0.326221 38.7078 -0.0880237 38.0972 0.0161708L4.1662 5.80957C4.1662 5.80957 0.291365 6.28241 0 9.75028L8.19843 57.7656C8.95344 62.1877 11.602 61.5052 11.602 61.5052L48.6585 55.1778C48.8343 55.117 48.9616 55.029 48.9302 54.8291C48.8707 54.4503 48.5391 54.4782 48.5391 54.4782Z"></path>
<path fill="#923A3B" d="M12.4226 54.164L4.1662 5.80957C4.1662 5.80957 0.291365 6.2824 0 9.75028L8.19843 57.7656C8.19843 57.7656 7.69171 54.7987 12.4226 54.164Z"></path>
<path fill="#923A3B" d="M34.3568 10.5536L10.5107 14.6254L12.3268 25.2608L36.1728 21.189L34.3568 10.5536Z"></path>
<path fill="#E99F34" d="M2.17238 11.7534C2.77981 11.3309 3.45185 11.0468 3.98644 10.8698C4.52135 10.6924 4.91786 10.6212 4.97423 10.6117L4.97993 10.6107L4.98215 10.6104L4.98595 10.6098L4.82348 9.65808L4.81177 9.65998C4.64771 9.68943 3.3825 9.91619 2.10081 10.6563C1.49749 11.0063 0.889113 11.4756 0.402344 12.104L0.656654 13.5934C0.77035 13.2976 0.918249 13.0297 1.09402 12.7861C1.39108 12.3766 1.76732 12.0349 2.1727 11.7534H2.17238Z"></path>
<path fill="#E99F34" d="M2.84606 14.3035C3.44209 13.8037 4.09164 13.4822 4.5895 13.2897C4.83811 13.1931 5.04871 13.1288 5.19408 13.0892C5.26692 13.0693 5.32329 13.0557 5.36035 13.0471C5.37872 13.043 5.39202 13.0401 5.40025 13.0382L5.23778 12.0865L5.23335 12.0872L5.2286 12.0881C5.1906 12.097 3.96306 12.3288 2.6988 13.2032C2.06761 13.6409 1.42693 14.2442 0.943008 15.0648C0.933507 15.081 0.924956 15.0984 0.915771 15.1148L1.23121 16.9615C1.3487 16.4215 1.5384 15.9573 1.77466 15.5551C2.07395 15.0477 2.44829 14.6366 2.84606 14.3035Z"></path>
<path fill="#E99F34" d="M8.5364 49.0268C9.14383 48.6043 9.81587 48.3203 10.3505 48.1432C10.8854 47.9659 11.2819 47.8946 11.3382 47.8851L11.3433 47.8842L11.3455 47.8838L11.35 47.8832L11.1875 46.9315L11.1758 46.9334C11.0117 46.9629 9.74683 47.1896 8.46482 47.9298C7.86151 48.2797 7.25313 48.7491 6.76636 49.3774L7.02067 50.8668C7.13436 50.571 7.28226 50.3031 7.45803 50.0596C7.7551 49.6501 8.13102 49.3084 8.5364 49.0268Z"></path>
<path fill="#E99F34" d="M9.21081 51.577C9.80684 51.0772 10.4564 50.7558 10.9542 50.5632C11.2029 50.4666 11.4135 50.4023 11.5588 50.3624C11.6317 50.3425 11.688 50.3288 11.7251 50.3203C11.7435 50.3162 11.7568 50.3133 11.765 50.3114L11.6025 49.3597L11.5981 49.3604L11.5933 49.3613C11.5553 49.3702 10.3278 49.602 9.06354 50.4764C8.43236 50.9141 7.79167 51.5174 7.30775 52.338C7.29825 52.3541 7.2897 52.3716 7.28052 52.388L7.59595 54.2347C7.71345 53.6947 7.90315 53.2305 8.13941 52.8282C8.43869 52.3209 8.81303 51.9098 9.21081 51.5766V51.577Z"></path>
<path fill="#E26C6D" d="M48.539 54.4782L11.3708 60.8245C10.8045 60.8869 10.3649 60.682 10.0241 60.3536C9.12883 59.4906 8.92108 57.77 8.92108 57.77C8.51475 54.9396 12.5118 54.6866 12.5118 54.6866L46.4428 48.8928C46.7434 48.8415 46.9961 48.6734 47.163 48.4435C47.3353 48.2062 47.4163 47.9032 47.3635 47.5931L47.2741 47.0706C47.3783 47.6812 46.9641 48.2661 46.3535 48.3703L12.4225 54.164C7.69196 54.799 8.19836 57.7655 8.19836 57.7655C8.95338 62.1876 11.6019 61.5051 11.6019 61.5051L48.6584 55.1778C48.8342 55.117 48.9615 55.0289 48.9302 54.8291C48.8706 54.4503 48.539 54.4782 48.539 54.4782Z"></path>
<path fill="#AAB8BC" d="M12.1248 57.2449C14.7357 55.9176 17.6889 55.1534 20.5383 54.5371C23.6245 53.8695 26.7554 53.4388 29.88 52.9945C32.9811 52.5533 36.0477 52.0121 39.1197 51.4024C40.6551 51.0978 42.2145 50.7772 43.7809 50.6978C45.0189 50.6351 46.2857 50.6876 47.5132 50.4932L47.1633 48.4435C46.9964 48.6734 46.7437 48.8416 46.4431 48.8929L12.5121 54.6866C12.5121 54.6866 8.51474 54.94 8.92138 57.77C8.92138 57.77 9.00246 58.4395 9.28052 59.1524C10.1442 58.4176 11.087 57.7725 12.1254 57.2446L12.1248 57.2449Z"></path>
<path fill="#CAD7DB" d="M67.7549 64.2071L67.4163 64.1691L68.1083 58.0276C68.3395 57.8474 68.5016 57.5788 68.5368 57.2663L73.8368 10.2324C73.9061 9.61676 73.4593 9.05652 72.8436 8.98716L38.638 5.13292C38.638 5.13292 34.7841 4.51123 33.5417 7.76185L28.0875 56.1657C27.5852 60.6236 30.3193 60.7031 30.3193 60.7031L67.6754 64.9124C67.8613 64.9029 68.0079 64.8535 68.0332 64.6527C68.0811 64.2723 67.7549 64.2071 67.7549 64.2071Z"></path>
<path fill="#B079B2" d="M67.7549 64.2071L67.4163 64.1691L67.4936 63.4825L29.1228 59.1589C28.5024 58.0811 28.7801 56.3706 28.7801 56.3706C29.1754 53.5387 33.086 54.4052 33.086 54.4052L67.2915 58.2594C67.5946 58.2936 67.8841 58.2021 68.1083 58.0276C68.3395 57.8474 68.5016 57.5788 68.5368 57.2663L73.8368 10.2324C73.9061 9.61676 73.4593 9.05652 72.8436 8.98716L38.638 5.13292C38.638 5.13292 34.7841 4.51123 33.5417 7.76185L28.0875 56.1657C27.5852 60.6236 30.3193 60.7031 30.3193 60.7031L67.6754 64.9124C67.8613 64.9029 68.0079 64.8535 68.0332 64.6527C68.0811 64.2723 67.7549 64.2071 67.7549 64.2071Z"></path>
<path fill="#A46DAB" d="M33.1451 53.878L38.638 5.13243C38.638 5.13243 34.784 4.51074 33.5416 7.76136L28.0874 56.1652C28.0874 56.1652 28.4244 53.1746 33.1454 53.878H33.1451Z"></path>
<path fill="#9D63A6" d="M42.2862 15.3634L41.0779 26.0848L65.1169 28.794L66.3252 18.0725L42.2862 15.3634Z"></path>
<path fill="#E99F34" d="M35.0718 10.2889C35.7726 10.0514 36.4969 9.96524 37.06 9.94371C37.6231 9.92186 38.024 9.96334 38.0807 9.96999L38.0864 9.97063H38.0887H38.0925L38.2004 9.01166L38.1884 9.01039C38.0225 8.99329 36.7443 8.85964 35.3074 9.21498C34.6306 9.38346 33.9158 9.66564 33.2739 10.134L33.1047 11.6355C33.296 11.3828 33.5123 11.1665 33.7489 10.9815C34.1479 10.6709 34.6043 10.4466 35.0718 10.2886V10.2889Z"></path>
<path fill="#E99F34" d="M35.0116 12.9261C35.7229 12.6116 36.4364 12.483 36.9679 12.4361C37.2336 12.4124 37.4537 12.4089 37.6044 12.4111C37.6798 12.4121 37.7378 12.4149 37.7758 12.4168C37.7944 12.4178 37.8081 12.4187 37.8166 12.4194L37.9246 11.4598L37.9202 11.4591H37.9154C37.8765 11.4566 36.6328 11.3385 35.1756 11.8274C34.4479 12.0729 33.6647 12.4745 32.972 13.1285C32.9584 13.1414 32.9454 13.1557 32.9318 13.169L32.7222 15.0306C32.985 14.5444 33.296 14.1511 33.6349 13.8306C34.0634 13.4262 34.5369 13.1354 35.0116 12.9258V12.9261Z"></path>
<path fill="#E99F34" d="M30.8379 47.8639C31.5387 47.6264 32.263 47.5402 32.8261 47.5187C33.3892 47.4969 33.7902 47.5383 33.8468 47.545L33.8519 47.5456H33.8541L33.8586 47.5463L33.9666 46.587L33.9545 46.5857C33.7886 46.5686 32.5104 46.435 31.0735 46.7903C30.3967 46.9588 29.6819 47.241 29.04 47.7094L28.8708 49.2108C29.0621 48.9581 29.2784 48.7418 29.5153 48.5569C29.9144 48.2462 30.3704 48.0219 30.8382 47.8639H30.8379Z"></path>
<path fill="#E99F34" d="M30.7777 50.501C31.489 50.1865 32.2025 50.058 32.734 50.0111C32.9997 49.9873 33.2198 49.9839 33.3705 49.9861C33.4459 49.9873 33.5039 49.9899 33.5419 49.9918C33.5606 49.9927 33.5742 49.9937 33.5827 49.9943L33.6907 49.0347L33.6863 49.0341H33.6815C33.6426 49.0315 32.3989 48.9134 30.9418 49.4024C30.214 49.6478 29.4308 50.0494 28.7382 50.7034C28.7245 50.7164 28.7116 50.7306 28.6979 50.7439L28.4883 52.6055C28.7511 52.1194 29.0621 51.726 29.401 51.4055C29.8295 51.0011 30.303 50.7101 30.7777 50.5007V50.501Z"></path>
<path fill="#E26C6D" d="M67.7547 64.2069L30.2855 59.985C29.7243 59.8878 29.3589 59.5688 29.1226 59.1587C28.5022 58.081 28.7799 56.3705 28.7799 56.3705C29.1752 53.5386 33.0858 54.405 33.0858 54.405L67.2914 58.2593C67.5944 58.2935 67.8839 58.202 68.1081 58.0275C68.3393 57.8473 68.5015 57.5787 68.5366 57.2661L68.5958 56.7394C68.5265 57.3551 67.9662 57.802 67.3506 57.7326L33.145 53.8784C28.424 53.175 28.087 56.1656 28.087 56.1656C27.5847 60.6235 30.3188 60.7029 30.3188 60.7029L67.6749 64.9122C67.8608 64.9027 68.0074 64.8533 68.0328 64.6525C68.0806 64.2722 67.7544 64.2069 67.7544 64.2069H67.7547Z"></path>
<path fill="#AAB8BC" d="M32.0036 56.7553C34.8801 56.2048 37.9297 56.2907 40.8379 56.4896C43.9885 56.7049 47.1156 57.1606 50.2404 57.6009C53.3422 58.0379 56.4383 58.3692 59.559 58.6368C61.1185 58.7704 62.7058 58.8955 64.2326 59.254C65.4392 59.5375 66.6417 59.9397 67.875 60.0936L68.1077 58.0275C67.8835 58.202 67.594 58.2935 67.291 58.2593L33.0854 54.405C33.0854 54.405 29.1751 53.5385 28.7795 56.3705C28.7795 56.3705 28.6715 57.0359 28.7406 57.7985C29.7743 57.3323 30.859 56.9744 32.0032 56.7556L32.0036 56.7553Z"></path>
</g>
<defs>
<clipPath id="clip0_2829_22731">
<rect fill="white" height="65" width="74"></rect>
</clipPath>
</defs>
</svg>
