<svg xmlns="http://www.w3.org/2000/svg" fill="none" viewBox="0 0 15 15" height="15" width="15">
<path fill="#121212" d="M13.7592 0.619141H1.71754C1.24211 0.619141 0.857422 1.00383 0.857422 1.47926V13.5209C0.857422 13.9964 1.24211 14.381 1.71754 14.381H13.7592C14.2346 14.381 14.6193 13.9963 14.6193 13.5209V1.47926C14.6193 1.00383 14.2346 0.619141 13.7592 0.619141ZM6.01814 7.50009C6.01814 7.50009 6.1542 5.77985 7.73837 5.77985C9.32255 5.77985 9.45861 7.50009 9.45861 7.50009C9.45861 7.50009 9.50818 9.22033 7.73837 9.22033C5.96857 9.22033 6.01814 7.50009 6.01814 7.50009ZM12.8991 12.6608H2.57766V6.63997H4.2979H4.41966C4.3483 6.91631 4.2979 7.20107 4.2979 7.50009C4.2979 9.4001 5.83837 10.9406 7.73837 10.9406C9.63838 10.9406 11.1789 9.40007 11.1789 7.50009C11.1789 7.20107 11.1285 6.91631 11.0571 6.63997H11.1789H12.8991V12.6608ZM12.8991 4.91974H10.3187V2.33938H12.8991V4.91974Z"></path>
</svg>
