<svg width="56" height="75" viewBox="0 0 56 75" fill="none" xmlns="http://www.w3.org/2000/svg">
<g clip-path="url(#clip0_2829_22686)">
<path d="M19.6032 65.0546C29.8404 68.1184 38.4304 69.6293 38.7896 68.4292C39.1487 67.2291 31.141 63.7726 20.9038 60.7088C10.6666 57.645 2.07654 56.1341 1.71738 57.3341C1.35823 58.5342 9.36596 61.9908 19.6032 65.0546Z" fill="#FCD497"></path>
<path d="M19.6033 65.0545C9.36614 61.9907 1.35834 58.5343 1.71755 57.3341L0.65047 60.8996C0.291262 62.0998 8.29906 65.5562 18.5363 68.62C28.7734 71.6838 37.3634 73.1948 37.7227 71.9946L38.7897 68.4292C38.4285 69.6288 29.8395 68.118 19.6033 65.0545Z" fill="url(#paint0_linear_2829_22686)"></path>
<path opacity="0.85" d="M31.3604 45.8876L31.3624 45.8882C31.3624 45.8882 27.7919 41.7258 28.5684 38.3762C29.3449 35.0266 35.8212 33.0614 35.8212 33.0614L35.8191 33.0608C41.4254 31.2532 46.4606 26.1995 48.3932 19.7422C48.5921 19.0777 48.753 18.4116 48.8801 17.7486L20.9738 9.39677C20.7148 10.0203 20.4844 10.6655 20.2855 11.3301C18.3529 17.7874 19.8938 24.7247 23.4755 29.3665L23.4735 29.3659C23.4735 29.3659 27.4272 34.275 26.5053 37.8575C25.6167 41.3107 20.1539 42.5326 20.1539 42.5326L20.1559 42.5332C14.3245 43.9092 8.91728 49.3112 6.90669 56.0293C6.71623 56.6656 6.56172 57.3029 6.43741 57.9382C6.4182 57.9621 6.40301 57.9871 6.39457 58.0153C6.12396 58.9195 12.1575 61.5239 19.8713 63.8326C27.5852 66.1412 34.0575 67.2796 34.3281 66.3754C34.5874 65.7508 34.8175 65.1066 35.0164 64.442C37.0267 57.725 35.4762 50.2406 31.3597 45.8863L31.3604 45.8876Z" fill="#CCECFC"></path>
<path d="M35.9076 10.9907C46.0825 14.0359 54.6221 15.5316 54.9813 14.3316C55.3404 13.1315 47.3832 9.69006 37.2082 6.64488C27.0333 3.59971 18.4938 2.10394 18.1346 3.304C17.7755 4.50406 25.7327 7.9455 35.9076 10.9907Z" fill="#FCD497"></path>
<path d="M52.6861 11.4505C52.4839 12.1261 45.1867 10.7124 36.4468 8.09665C27.7069 5.48094 20.8329 2.65351 21.0351 1.97787C21.2373 1.30224 28.4865 2.87608 37.2264 5.49179C45.9663 8.1075 52.888 10.7758 52.6861 11.4505Z" fill="#FCD497"></path>
<path d="M36.5566 8.12945C27.2981 5.35855 20.8657 2.65011 21.0351 1.97782L19.5708 3.72502C19.3686 4.40065 26.6457 7.53849 35.9041 10.3094C45.1626 13.0803 52.8965 14.435 53.0987 13.7593L52.6888 11.4414C52.471 12.0959 45.814 10.9 36.5566 8.12945Z" fill="url(#paint1_linear_2829_22686)"></path>
<path d="M19.859 8.35221L19.2086 8.15754C18.9527 8.08098 18.6833 8.22629 18.6068 8.4821L11.7646 31.3439C11.6881 31.5997 11.8334 31.8691 12.0892 31.9456L12.7397 32.1403C12.9955 32.2169 13.2649 32.0716 13.3414 31.8158L20.1836 8.95401C20.2601 8.6982 20.1148 8.42877 19.859 8.35221Z" fill="url(#paint2_linear_2829_22686)"></path>
<path d="M11.9613 34.7411L11.3108 34.5465C11.055 34.4699 10.7856 34.6152 10.7091 34.871L3.86693 57.7328C3.79037 57.9886 3.93568 58.258 4.19149 58.3346L4.84195 58.5292C5.09775 58.6058 5.36719 58.4605 5.44374 58.2047L12.2859 35.3429C12.3624 35.0871 12.2171 34.8177 11.9613 34.7411Z" fill="url(#paint3_linear_2829_22686)"></path>
<path d="M12.2136 34.9062C13.1168 34.8139 13.7741 34.0069 13.6817 33.1037C13.5894 32.2006 12.7823 31.5433 11.8792 31.6356C10.9761 31.728 10.3188 32.535 10.4111 33.4381C10.5035 34.3413 11.3105 34.9986 12.2136 34.9062Z" fill="#E78341"></path>
<path d="M51.077 17.6952L50.4266 17.5006C50.1708 17.424 49.9013 17.5693 49.8248 17.8251L42.9827 40.6869C42.9061 40.9427 43.0514 41.2121 43.3072 41.2887L43.9577 41.4833C44.2135 41.5599 44.4829 41.4146 44.5595 41.1588L51.4016 18.297C51.4781 18.0412 51.3328 17.7718 51.077 17.6952Z" fill="url(#paint4_linear_2829_22686)"></path>
<path d="M43.1793 44.0841L42.5289 43.8895C42.2731 43.8129 42.0036 43.9582 41.9271 44.214L35.0849 67.0758C35.0084 67.3316 35.1537 67.601 35.4095 67.6776L36.06 67.8723C36.3158 67.9488 36.5852 67.8035 36.6618 67.5477L43.5039 44.6859C43.5804 44.4301 43.4351 44.1607 43.1793 44.0841Z" fill="url(#paint5_linear_2829_22686)"></path>
<path d="M43.4316 44.2495C44.3348 44.1571 44.9921 43.3501 44.8997 42.447C44.8074 41.5438 44.0004 40.8866 43.0972 40.9789C42.1941 41.0713 41.5368 41.8783 41.6291 42.7814C41.7215 43.6845 42.5285 44.3418 43.4316 44.2495Z" fill="#E78341"></path>
<path d="M21.07 22.3196C21.07 22.3196 30.706 21.6994 34.9293 25.8213C39.1524 29.9442 22.6185 24.7666 22.6185 24.7666L21.07 22.3196Z" fill="url(#paint6_linear_2829_22686)"></path>
<path d="M21.0699 22.3197C21.0699 22.3197 21.5976 25.7875 24.8513 29.8979C26.9657 32.5691 27.8099 37.0763 27.8099 37.0763C27.8099 37.0763 30.3617 34.6716 32.0375 33.7425C33.9777 32.6666 39.4449 31.4591 41.5541 28.4294C41.5541 28.4294 40.1215 24.5283 34.2252 24.0572C28.8476 23.6271 28.439 26.6568 21.0702 22.3187L21.0699 22.3197Z" fill="url(#paint7_linear_2829_22686)"></path>
<path d="M48.8419 17.95C48.8419 17.95 47.2999 26.9696 39.2012 31.5408C33.6463 34.6759 29.8511 34.2115 28.4722 39.0243C28.4722 39.0243 27.9978 37.5888 30.9215 35.2318C33.3174 33.3005 38.0328 32.8456 42.3823 28.8626C46.731 24.8783 48.1019 17.8273 48.1019 17.8273L48.8426 17.9513L48.8419 17.95Z" fill="white"></path>
<path d="M7.87326 57.8873C7.87326 57.8873 19.5379 64.3526 33.0591 65.3109C33.0591 65.3109 34.9992 61.4385 33.3872 57.7701C31.3189 53.0644 25.8024 52.4019 24.267 48.9286C24.267 48.9286 23.0614 49.7055 21.0303 49.78C19.2676 49.8449 9.49183 48.6998 7.87457 57.8866L7.87326 57.8873Z" fill="url(#paint8_linear_2829_22686)"></path>
<path d="M20.9166 9.53654C20.9166 9.53654 18.1175 15.9934 20.0989 22.3165C20.0989 22.3165 20.8326 25.6935 22.9839 28.6961C25.1342 31.6984 27.2777 34.9762 26.3297 38.382C26.3297 38.382 27.925 36.12 25.2199 31.3094C25.2199 31.3094 21.9679 27.2192 20.9414 23.9224C20.1264 21.3044 19.1314 16.22 21.6902 9.88436L20.9176 9.53685L20.9166 9.53654Z" fill="white"></path>
<path d="M29.0896 42.1734C29.0896 42.1734 30.2351 44.5338 31.5056 46.044C32.8651 47.6599 38.9836 54.9107 34.2111 66.5169C34.2111 66.5169 33.8791 66.75 33.2875 66.6848C33.2875 66.6848 35.6417 62.5688 35.5111 57.2208C35.3804 51.8729 31.9276 47.1412 31.7644 46.9278C31.5901 46.7001 29.3525 43.8099 29.0886 42.1731L29.0896 42.1734Z" fill="white"></path>
<path d="M6.39617 58.142C6.39617 58.142 7.24379 51.3765 13.1702 46.2703C19.0967 41.1641 20.3213 43.7072 24.763 40.3728C24.763 40.3728 22.6478 42.3157 20.0521 42.8214C17.7922 43.2608 9.07828 47.0467 7.09468 58.8469C7.09468 58.8469 6.42661 58.3519 6.39587 58.143L6.39617 58.142Z" fill="white"></path>
<path opacity="0.35" d="M45.5038 17.3218C45.5038 17.3218 43.9152 25.5112 38.3392 29.3695C34.5992 31.9573 31.405 33.4402 28.7846 37.3679C28.7846 37.3679 29.3818 31.9745 33.8615 28.0294C40.6578 22.0437 38.0572 15.4837 38.0572 15.4837L45.5038 17.3218Z" fill="white"></path>
<path opacity="0.52" d="M22.6552 11.8396C22.6552 11.8396 23.9527 12.6876 26.5698 13.518C26.5698 13.518 25.3137 16.1536 24.9449 19.5485C24.9449 19.5485 23.1122 19.1251 21.9272 18.2679C21.9272 18.2679 21.22 16.8955 22.6555 11.8386L22.6552 11.8396Z" fill="white"></path>
<path opacity="0.35" d="M28.0015 40.6958C28.0015 40.6958 27.8919 42.301 30.4853 47.0596C34.069 53.634 34.5859 60.9538 30.8631 66.4683C30.8631 66.4683 28.5798 66.1722 26.0415 65.5003C26.0415 65.5003 31.1987 60.4678 29.0048 50.7306C27.4023 43.618 28.0022 40.6971 28.0022 40.6971L28.0015 40.6958Z" fill="white"></path>
<path opacity="0.35" d="M16.5196 46.6221C16.5196 46.6221 18.1029 47.1749 19.0044 47.6158C19.0044 47.6158 15.6143 52.3193 14.9322 55.5589L11.5294 54.0622C11.5294 54.0622 12.2213 51.1711 16.5193 46.6231L16.5196 46.6221Z" fill="white"></path>
<path d="M28.0069 36.9015C27.9465 37.0886 27.7459 37.1909 27.5591 37.1295C27.372 37.0691 27.2697 36.8685 27.3311 36.6817C27.3915 36.4946 27.5921 36.3923 27.7789 36.4537C27.966 36.5141 28.0683 36.7147 28.0069 36.9015Z" fill="#156997"></path>
<path d="M28.3491 37.5952C28.2996 37.7494 28.134 37.8336 27.9801 37.7832C27.8263 37.7328 27.7417 37.5681 27.7921 37.4143C27.8416 37.2601 28.0072 37.1758 28.1611 37.2263C28.3152 37.2757 28.3995 37.4413 28.3491 37.5952Z" fill="#156997"></path>
<path d="M27.6731 38.072C27.633 38.195 27.5008 38.2629 27.3769 38.2225C27.2539 38.1824 27.186 38.0502 27.2264 37.9263C27.2664 37.8033 27.3987 37.7354 27.5226 37.7758C27.6466 37.8161 27.7135 37.9481 27.6731 38.072Z" fill="#156997"></path>
<path d="M27.5547 38.7354C27.6792 38.7727 27.8104 38.7019 27.8477 38.5773C27.885 38.4528 27.8142 38.3216 27.6897 38.2843C27.5651 38.247 27.4339 38.3178 27.3966 38.4423C27.3593 38.5669 27.4301 38.6981 27.5547 38.7354Z" fill="#156997"></path>
<path opacity="0.71" d="M27.4061 38.9675C27.3791 39.0505 27.2897 39.0961 27.2068 39.0691C27.1238 39.0421 27.0781 38.9527 27.1052 38.8698C27.1322 38.7868 27.2216 38.7411 27.3045 38.7681C27.3875 38.7952 27.4332 38.8845 27.4061 38.9675Z" fill="#156997"></path>
<path opacity="0.71" d="M27.4078 39.3541C27.3853 39.422 27.3129 39.4585 27.2458 39.4373C27.1779 39.4148 27.1414 39.3424 27.1626 39.2753C27.1851 39.2074 27.2575 39.1709 27.3246 39.1921C27.3925 39.2146 27.429 39.287 27.4078 39.3541Z" fill="#156997"></path>
<path opacity="0.71" d="M27.2015 39.6918C27.179 39.7596 27.1066 39.7961 27.0395 39.7749C26.9716 39.7524 26.9351 39.6801 26.9563 39.6129C26.9775 39.5458 27.0512 39.5086 27.1183 39.5298C27.1855 39.5509 27.2227 39.6246 27.2015 39.6918Z" fill="#156997"></path>
<path opacity="0.68" d="M27.1104 40.1158C27.0958 40.161 27.0475 40.1862 27.0013 40.1713C26.9561 40.1567 26.9309 40.1084 26.9458 40.0621C26.9604 40.0169 27.0087 39.9917 27.055 40.0067C27.1002 40.0213 27.1254 40.0696 27.1104 40.1158Z" fill="#156997"></path>
<path opacity="0.68" d="M26.8986 40.5197C26.89 40.5667 26.8456 40.5975 26.7992 40.5903C26.7522 40.5817 26.7214 40.5372 26.7287 40.4909C26.7373 40.4439 26.7817 40.4131 26.828 40.4204C26.8751 40.4289 26.9058 40.4734 26.8986 40.5197Z" fill="#156997"></path>
<path opacity="0.52" d="M26.7468 40.9679C26.7359 41.0043 26.697 41.0235 26.6609 41.0116C26.6245 41.0007 26.6053 40.9619 26.6172 40.9258C26.6291 40.8897 26.6669 40.8702 26.703 40.8821C26.7394 40.893 26.7587 40.9318 26.7468 40.9679Z" fill="#156997"></path>
<path opacity="0.71" d="M27.257 38.5312C27.2299 38.6142 27.1406 38.6599 27.0576 38.6328C26.9746 38.6058 26.929 38.5164 26.956 38.4335C26.983 38.3505 27.0724 38.3048 27.1554 38.3319C27.2383 38.3589 27.284 38.4483 27.257 38.5312Z" fill="#156997"></path>
<path d="M27.6113 37.4755C27.5785 37.5776 27.4683 37.6345 27.3654 37.6005C27.2633 37.5677 27.2064 37.4574 27.2405 37.3546C27.2732 37.2525 27.3835 37.1955 27.4863 37.2296C27.5884 37.2624 27.6454 37.3727 27.6113 37.4755Z" fill="#156997"></path>
<path d="M35.9075 10.9906C25.7328 7.9455 17.7753 4.50418 18.1345 3.30396L17.0675 6.8694C16.7083 8.06963 24.6657 11.5109 34.8405 14.5561C45.0152 17.6012 53.5549 19.0972 53.9141 17.897L54.9812 14.3315C54.62 15.5311 46.0813 14.0355 35.9075 10.9906Z" fill="url(#paint9_linear_2829_22686)"></path>
<path d="M17.842 11.0376L19.0114 12.8708L20.1219 9.1604L18.7394 8.43507C18.7394 8.43507 18.5811 8.56433 18.4892 8.87144L17.841 11.0373L17.842 11.0376Z" fill="#F59658"></path>
<path d="M49.0467 20.425L50.1489 22.4827L51.3255 18.5365C51.3444 18.4697 51.354 18.2729 51.3194 18.2637L49.7474 18.0872C49.7474 18.0872 49.718 18.1783 49.6261 18.4854L49.0454 20.4257L49.0467 20.425Z" fill="#F59658"></path>
<path opacity="0.5" d="M42.6477 8.44832C42.5025 8.93365 37.924 8.15033 32.5243 6.37524C27.1207 4.59894 22.7812 3.03144 22.9265 2.54611C23.0717 2.06078 27.4604 3.11201 33.0499 4.6192C38.5388 6.09957 42.793 7.963 42.6477 8.44832Z" fill="white"></path>
<path opacity="0.68" d="M26.8398 40.265C26.8289 40.3014 26.7901 40.3207 26.754 40.3087C26.7175 40.2979 26.6983 40.259 26.7102 40.2229C26.7221 40.1868 26.7599 40.1673 26.796 40.1792C26.8324 40.1901 26.8517 40.2289 26.8398 40.265Z" fill="#156997"></path>
<path opacity="0.52" d="M26.9225 40.8351C26.9116 40.8715 26.8728 40.8907 26.8367 40.8788C26.8003 40.8679 26.7811 40.8291 26.793 40.793C26.8039 40.7566 26.8427 40.7374 26.8788 40.7493C26.9152 40.7602 26.9344 40.799 26.9225 40.8351Z" fill="#156997"></path>
</g>
<defs>
<linearGradient id="paint0_linear_2829_22686" x1="0.858702" y1="60.2038" x2="37.9309" y2="71.2988" gradientUnits="userSpaceOnUse">
<stop stop-color="#FAC17D"></stop>
<stop offset="0.47" stop-color="#FAA85F"></stop>
<stop offset="0.68" stop-color="#EC9852"></stop>
<stop offset="1" stop-color="#DC8443"></stop>
</linearGradient>
<linearGradient id="paint1_linear_2829_22686" x1="19.6393" y1="3.49645" x2="53.1671" y2="13.5308" gradientUnits="userSpaceOnUse">
<stop stop-color="#FAC17D"></stop>
<stop offset="0.47" stop-color="#FAA85F"></stop>
<stop offset="0.68" stop-color="#EC9852"></stop>
<stop offset="1" stop-color="#DC8443"></stop>
</linearGradient>
<linearGradient id="paint2_linear_2829_22686" x1="19.9212" y1="7.37466" x2="12.303" y2="32.0305" gradientUnits="userSpaceOnUse">
<stop stop-color="#FAC17D"></stop>
<stop offset="0.52" stop-color="#FAA85F"></stop>
<stop offset="0.73" stop-color="#EE9551"></stop>
<stop offset="1" stop-color="#DB773C"></stop>
</linearGradient>
<linearGradient id="paint3_linear_2829_22686" x1="4.07277" y1="58.9145" x2="11.7507" y2="35.1773" gradientUnits="userSpaceOnUse">
<stop stop-color="#FAC17D"></stop>
<stop offset="0.52" stop-color="#FAA85F"></stop>
<stop offset="0.73" stop-color="#EE9551"></stop>
<stop offset="1" stop-color="#DB773C"></stop>
</linearGradient>
<linearGradient id="paint4_linear_2829_22686" x1="50.598" y1="18.163" x2="43.6842" y2="41.1579" gradientUnits="userSpaceOnUse">
<stop stop-color="#FAC17D"></stop>
<stop offset="0.47" stop-color="#FAA85F"></stop>
<stop offset="0.68" stop-color="#EC9852"></stop>
<stop offset="1" stop-color="#DC8443"></stop>
</linearGradient>
<linearGradient id="paint5_linear_2829_22686" x1="35.7342" y1="67.6705" x2="42.9228" y2="43.8636" gradientUnits="userSpaceOnUse">
<stop stop-color="#FAC17D"></stop>
<stop offset="0.52" stop-color="#FAA85F"></stop>
<stop offset="0.73" stop-color="#EE9551"></stop>
<stop offset="1" stop-color="#DB773C"></stop>
</linearGradient>
<linearGradient id="paint6_linear_2829_22686" x1="28.609" y1="22.6834" x2="28.2568" y2="25.2604" gradientUnits="userSpaceOnUse">
<stop stop-color="#92C9E0"></stop>
<stop offset="0.27" stop-color="#4995B5"></stop>
<stop offset="0.49" stop-color="#146F96"></stop>
<stop offset="0.59" stop-color="#00618A"></stop>
<stop offset="1" stop-color="#00658C"></stop>
</linearGradient>
<linearGradient id="paint7_linear_2829_22686" x1="31.791" y1="23.7741" x2="27.8364" y2="36.9877" gradientUnits="userSpaceOnUse">
<stop stop-color="#5EB0D5"></stop>
<stop offset="0.1" stop-color="#499FC4"></stop>
<stop offset="0.37" stop-color="#14749B"></stop>
<stop offset="0.51" stop-color="#00648C"></stop>
<stop offset="0.56" stop-color="#006189"></stop>
<stop offset="1" stop-color="#00507C"></stop>
</linearGradient>
<linearGradient id="paint8_linear_2829_22686" x1="24.5327" y1="49.0159" x2="20.0709" y2="62.7293" gradientUnits="userSpaceOnUse">
<stop stop-color="#6FB0D4"></stop>
<stop offset="0.13" stop-color="#499CBF"></stop>
<stop offset="0.34" stop-color="#1480A3"></stop>
<stop offset="0.44" stop-color="#007699"></stop>
<stop offset="0.73" stop-color="#005D86"></stop>
<stop offset="1" stop-color="#004C79"></stop>
</linearGradient>
<linearGradient id="paint9_linear_2829_22686" x1="17.2757" y1="6.17363" x2="17.1498" y2="6.13596" gradientUnits="userSpaceOnUse">
<stop stop-color="#FAC17D"></stop>
<stop offset="0.47" stop-color="#FAA85F"></stop>
<stop offset="0.68" stop-color="#EC9852"></stop>
<stop offset="1" stop-color="#DC8443"></stop>
</linearGradient>
<clipPath id="clip0_2829_22686">
<rect width="38.6969" height="65.8366" fill="white" transform="translate(18.8765) rotate(16.6615)"></rect>
</clipPath>
</defs>
</svg>
