<svg xmlns="http://www.w3.org/2000/svg" fill="none" viewBox="0 0 15 15" height="15" width="15">
<path fill="#121212" d="M3.52374 5.47656H0.285645V14.3813H3.52374V5.47656Z"></path>
<path fill="#121212" d="M1.90469 3.85724C2.79887 3.85724 3.52374 3.13236 3.52374 2.23819C3.52374 1.34401 2.79887 0.619141 1.90469 0.619141C1.01052 0.619141 0.285645 1.34401 0.285645 2.23819C0.285645 3.13236 1.01052 3.85724 1.90469 3.85724Z"></path>
<path fill="#121212" d="M11.2145 4.86914C10.1095 4.87238 9.06602 5.37995 8.38116 6.24857V5.47628H5.14307V14.381H8.38116V8.71438C8.38116 7.82066 9.1065 7.09533 10.0002 7.09533C10.8939 7.09533 11.6193 7.82066 11.6193 8.71438V14.381H14.8574V8.512C14.8574 6.50033 13.2262 4.86914 11.2145 4.86914Z"></path>
</svg>
