<svg width="171" height="59" viewBox="0 0 171 59" fill="none" xmlns="http://www.w3.org/2000/svg">
<g clip-path="url(#clip0_2065_796)">
<path fill-rule="evenodd" clip-rule="evenodd" d="M29.8812 36.012C30.2574 35.4438 30.576 34.841 30.8325 34.212L33.3507 35.188C32.9796 36.0424 32.5255 36.8599 31.9947 37.629C30.4081 40.0143 28.0254 41.7843 25.2546 42.636C24.124 43.0327 22.9073 43.1328 21.7251 42.9264C20.5428 42.7199 19.4361 42.2141 18.5146 41.459C16.9098 40.047 15.9137 37.68 15.9137 34.419C15.8924 31.3884 16.7984 28.4212 18.5146 25.901C20.1016 23.5161 22.4841 21.7462 25.2546 20.894C26.3852 20.4974 27.6018 20.3973 28.784 20.6036C29.9662 20.8098 31.0729 21.3153 31.9947 22.07C32.5363 22.5514 32.9943 23.1161 33.3507 23.742L30.8783 26.112C30.6299 25.6096 30.2942 25.1535 29.8863 24.764C29.2692 24.2182 28.5126 23.847 27.6972 23.69C26.8818 23.5331 26.0383 23.5963 25.2567 23.873C23.334 24.4668 21.6917 25.7162 20.627 27.395C19.4442 29.2282 18.8294 31.3587 18.8571 33.528C18.7866 34.4536 18.9077 35.3837 19.2133 36.2623C19.5189 37.1408 20.0025 37.9496 20.6352 38.64C21.2499 39.1869 22.0044 39.56 22.8183 39.7195C23.6321 39.8791 24.4748 39.8191 25.2567 39.546C27.1781 38.9503 28.8189 37.7 29.8823 36.021" fill="black"></path>
<path d="M9.94648 58.695C9.78077 58.6953 9.61719 58.6584 9.46832 58.587L0.611713 54.345C0.428095 54.2559 0.273519 54.1182 0.16543 53.9475C0.0573413 53.7769 4.367e-05 53.5799 0 53.379V9.21599C0.0210783 8.97384 0.119089 8.74429 0.280231 8.55968C0.441373 8.37507 0.657519 8.24472 0.898198 8.18699L29.7752 0.0229898C29.8495 0.00197828 29.9272 -0.00448634 30.004 0.0039678C30.0808 0.0124219 30.1551 0.0356277 30.2227 0.0722604C30.2904 0.108893 30.35 0.158236 30.3982 0.217471C30.4464 0.276705 30.4822 0.344671 30.5037 0.417489C30.5251 0.490307 30.5317 0.566551 30.5231 0.641867C30.5144 0.717183 30.4908 0.790095 30.4534 0.856442C30.4161 0.92279 30.3658 0.981273 30.3054 1.02855C30.245 1.07583 30.1757 1.11098 30.1015 1.13199L1.22241 9.29499C1.20599 9.30058 1.19026 9.30796 1.17551 9.31699V53.332L9.95464 57.538L38.7715 49.328V6.33999L10.391 14.515C10.3163 14.5382 10.2377 14.5466 10.1597 14.5397C10.0816 14.5327 10.0058 14.5106 9.93666 14.4745C9.8675 14.4384 9.80639 14.3891 9.7569 14.3296C9.70741 14.27 9.67055 14.2013 9.64848 14.1276C9.62642 14.0539 9.61958 13.9766 9.62838 13.9002C9.63719 13.8239 9.66146 13.75 9.69976 13.683C9.73806 13.6159 9.78962 13.5571 9.85142 13.5099C9.91322 13.4626 9.98401 13.428 10.0596 13.408L38.5462 5.20299C38.7093 5.15586 38.8813 5.14669 39.0486 5.17621C39.2159 5.20572 39.3738 5.2731 39.5099 5.373C39.646 5.4729 39.7565 5.60256 39.8326 5.75168C39.9086 5.90079 39.9482 6.06526 39.948 6.23199V49.39C39.9473 49.6222 39.87 49.8479 39.7278 50.0335C39.5856 50.2191 39.3861 50.3547 39.1589 50.42L10.2513 58.655C10.1519 58.6829 10.0489 58.6971 9.94546 58.697" fill="black"></path>
<path d="M5.44431 11.81C5.30252 11.8095 5.16566 11.7589 5.05892 11.6673C4.95218 11.5758 4.88274 11.4495 4.86338 11.3117C4.84403 11.174 4.87606 11.034 4.95357 10.9175C5.03109 10.8011 5.14888 10.716 5.28526 10.678L33.7698 2.81697C33.92 2.77547 34.0808 2.79419 34.217 2.86901C34.3531 2.94384 34.4534 3.06865 34.4957 3.21597C34.538 3.3633 34.5189 3.52108 34.4426 3.65461C34.3663 3.78814 34.2391 3.88647 34.0889 3.92797L5.60437 11.788C5.55234 11.8027 5.49846 11.8101 5.44431 11.81Z" fill="black"></path>
<path fill-rule="evenodd" clip-rule="evenodd" d="M60.6077 32.119C60.8684 31.8496 61.0906 31.5469 61.2684 31.219L63.0179 32.21C62.7589 32.6485 62.4426 33.0519 62.0769 33.41C60.8071 34.5725 59.1348 35.2191 57.3977 35.2191C55.6607 35.2191 53.9884 34.5725 52.7186 33.41C51.5584 32.1679 50.9147 30.5445 50.9147 28.86C50.9147 27.1754 51.5584 25.552 52.7186 24.31C53.9885 23.1476 55.6608 22.5012 57.3977 22.5012C59.1347 22.5012 60.8069 23.1476 62.0769 24.31C62.4422 24.6683 62.7585 25.0717 63.0179 25.51L61.301 26.483C61.1187 26.1344 60.8866 25.8132 60.6118 25.529C59.7539 24.7026 58.5996 24.2397 57.3972 24.2397C56.1949 24.2397 55.0405 24.7026 54.1827 25.529C53.3882 26.4485 52.9525 27.615 52.9535 28.8204C52.9544 30.0258 53.3918 31.1916 54.1878 32.11C55.0416 32.9415 56.1961 33.4081 57.3993 33.4081C58.6025 33.4081 59.7569 32.9415 60.6108 32.11M72.1049 27.11C72.2277 26.8327 72.2862 26.5321 72.2762 26.23C72.2857 25.9308 72.2272 25.6332 72.1049 25.359C71.9793 25.1059 71.788 24.8896 71.5503 24.732C71.2952 24.5514 70.9998 24.4331 70.6888 24.387C70.3175 24.3345 69.9423 24.3128 69.5673 24.322H68.4316V28.142H69.5602C69.9351 28.151 70.3102 28.1299 70.6816 28.079C70.9917 28.0354 71.2872 27.9221 71.5452 27.748C71.7816 27.585 71.9723 27.3663 72.0998 27.112M73.5669 28.443C73.0587 29.0208 72.3752 29.4238 71.6166 29.593L75.0218 34.793L75.1584 35.002H72.7452L72.7044 34.936L69.5357 29.807H68.4316V35.001H66.4262V22.676H70.0404C70.6174 22.669 71.1927 22.7418 71.7491 22.892C72.2327 23.0235 72.6861 23.2448 73.0847 23.544C73.482 23.8561 73.7994 24.255 74.0114 24.709C74.2267 25.1781 74.3356 25.6875 74.3305 26.202C74.3571 27.0161 74.0859 27.8128 73.5659 28.448M86.8911 32.117C87.6848 31.1963 88.1202 30.0296 88.1202 28.824C88.1202 27.6183 87.6848 26.4516 86.8911 25.531C86.0332 24.7046 84.8789 24.2417 83.6765 24.2417C82.4741 24.2417 81.3198 24.7046 80.462 25.531C79.6673 26.4504 79.2315 27.617 79.2324 28.8224C79.2334 30.0278 79.6709 31.1937 80.467 32.112C81.3211 32.9432 82.4754 33.4097 83.6786 33.4097C84.8817 33.4097 86.036 32.9432 86.8901 32.112M88.3582 24.303C89.5189 25.5448 90.1628 27.1683 90.1628 28.853C90.1628 30.5377 89.5189 32.1612 88.3582 33.403C87.0884 34.5655 85.4161 35.2121 83.6791 35.2121C81.942 35.2121 80.2698 34.5655 79 33.403C77.8395 32.1611 77.1957 30.5376 77.1957 28.853C77.1957 27.1683 77.8395 25.5449 79 24.303C80.2698 23.1404 81.942 22.4938 83.6791 22.4938C85.4161 22.4938 87.0884 23.1404 88.3582 24.303ZM100.898 30.284C101.059 30.6745 101.14 31.092 101.137 31.513C101.138 32.0321 101.02 32.5449 100.791 33.013C100.557 33.4873 100.219 33.9054 99.8023 34.238C99.3891 34.5651 98.9166 34.8127 98.4097 34.968C97.8565 35.1359 97.28 35.2185 96.7009 35.213C95.7569 35.2172 94.8334 34.943 94.0502 34.426C93.5159 34.0631 93.0355 33.6293 92.6228 33.137L92.5443 33.048L92.6228 32.959L93.6424 31.823L93.7545 31.697L93.8565 31.831C94.2415 32.3345 94.7272 32.7557 95.2838 33.069C95.765 33.3472 96.3116 33.4982 96.8702 33.507C97.4692 33.5268 98.0558 33.3368 98.5249 32.971C98.723 32.8034 98.8807 32.5947 98.9865 32.36C99.0923 32.1253 99.1436 31.8705 99.1366 31.614C99.1366 30.491 97.9132 30.014 97.2953 29.773L97.228 29.747C96.9059 29.624 96.5297 29.479 96.1779 29.337C95.8262 29.195 95.4948 29.054 95.2604 28.937C95.0649 28.8479 94.8762 28.7453 94.6955 28.63C94.4372 28.4659 94.2003 28.2714 93.99 28.051C93.7344 27.7909 93.5316 27.4855 93.3926 27.151C93.2244 26.7377 93.1412 26.2959 93.1479 25.851C93.1474 25.3895 93.2519 24.9338 93.4538 24.517C93.6594 24.0931 93.9561 23.7179 94.3234 23.417C94.7064 23.1064 95.1477 22.8724 95.6223 22.728C96.1479 22.5676 96.6959 22.4886 97.2464 22.494C98.1148 22.4904 98.9675 22.7207 99.7116 23.16C100.142 23.416 100.535 23.7297 100.877 24.092L100.958 24.176L100.886 24.268L99.9777 25.422L99.8757 25.547L99.7646 25.432C99.4466 25.093 99.0777 24.8037 98.6707 24.574C98.2082 24.3171 97.6861 24.1814 97.1546 24.18C96.6258 24.1547 96.1035 24.304 95.6712 24.604C95.5023 24.7382 95.3676 24.9092 95.2778 25.1035C95.1881 25.2978 95.1458 25.5099 95.1543 25.723C95.1461 25.933 95.1838 26.1423 95.2648 26.3369C95.3459 26.5314 95.4685 26.7067 95.6243 26.851C95.9285 27.1054 96.278 27.3027 96.6551 27.433L98.9194 28.36C99.21 28.4985 99.4879 28.6611 99.7503 28.846C99.9748 28.9977 100.18 29.1749 100.362 29.374C100.587 29.641 100.77 29.9397 100.904 30.26M111.966 30.26C112.127 30.6505 112.208 31.068 112.205 31.489C112.206 32.0081 112.088 32.5208 111.859 32.989C111.625 33.4631 111.287 33.8812 110.87 34.214C110.457 34.5411 109.985 34.7887 109.478 34.944C108.924 35.1119 108.348 35.1945 107.769 35.189C106.825 35.1932 105.901 34.919 105.118 34.402C104.584 34.0391 104.103 33.6053 103.691 33.113L103.611 33.024L103.691 32.935L104.71 31.799L104.823 31.673L104.925 31.807C105.309 32.3099 105.793 32.7311 106.348 33.045C106.829 33.3232 107.376 33.4742 107.935 33.483C108.534 33.5026 109.121 33.3126 109.59 32.947C109.788 32.7794 109.946 32.5707 110.051 32.336C110.157 32.1013 110.208 31.8465 110.201 31.59C110.201 30.467 108.978 29.99 108.36 29.749L108.293 29.723C107.971 29.6 107.595 29.455 107.243 29.313C106.891 29.171 106.56 29.03 106.325 28.913C106.13 28.8241 105.941 28.7215 105.76 28.606C105.502 28.4419 105.265 28.2474 105.055 28.027C104.8 27.7669 104.597 27.4614 104.459 27.127C104.29 26.7137 104.207 26.2719 104.214 25.827C104.213 25.3655 104.318 24.9097 104.52 24.493C104.725 24.0688 105.022 23.6935 105.389 23.393C105.772 23.0826 106.214 22.8485 106.688 22.704C107.214 22.5436 107.762 22.4647 108.312 22.47C109.181 22.4663 110.033 22.6967 110.778 23.136C111.208 23.3919 111.601 23.7055 111.943 24.068L112.024 24.152L111.952 24.244L111.044 25.398L110.942 25.523L110.831 25.408C110.512 25.0692 110.144 24.7799 109.737 24.55C109.274 24.2933 108.753 24.1576 108.222 24.156C107.692 24.1306 107.17 24.2799 106.737 24.58C106.568 24.7142 106.433 24.8852 106.344 25.0795C106.254 25.2737 106.212 25.4859 106.22 25.699C106.212 25.909 106.25 26.1183 106.331 26.3129C106.412 26.5074 106.534 26.6827 106.69 26.827C106.994 27.0815 107.344 27.2788 107.721 27.409L109.985 28.336H109.99C110.281 28.4747 110.559 28.6372 110.821 28.822C111.046 28.9737 111.251 29.1509 111.433 29.35C111.658 29.617 111.841 29.9157 111.975 30.236M126.388 31.817L128.916 22.776L128.944 22.676H131.051L131 22.849L127.452 34.915L127.422 35.015H125.525L125.495 34.915L122.668 25.609L119.864 34.916L119.833 35.016H117.926L117.897 34.916L114.349 22.85L114.298 22.677H116.405L116.433 22.777L118.961 31.818L121.659 22.775L121.688 22.675H123.659L123.689 22.775L126.388 31.817ZM142.293 32.117C143.087 31.1963 143.522 30.0296 143.522 28.824C143.522 27.6183 143.087 26.4516 142.293 25.531C141.435 24.7046 140.281 24.2417 139.079 24.2417C137.876 24.2417 136.722 24.7046 135.864 25.531C135.069 26.4498 134.632 27.616 134.632 28.8215C134.632 30.0269 135.069 31.1931 135.864 32.112C136.718 32.943 137.872 33.4092 139.075 33.4092C140.279 33.4092 141.433 32.943 142.287 32.112M143.755 24.303C144.916 25.5448 145.56 27.1683 145.56 28.853C145.56 30.5377 144.916 32.1612 143.755 33.403C142.485 34.5655 140.813 35.2121 139.076 35.2121C137.339 35.2121 135.667 34.5655 134.397 33.403C133.236 32.1613 132.592 30.5377 132.592 28.853C132.592 27.1682 133.236 25.5447 134.397 24.303C135.667 23.1404 137.339 22.4938 139.076 22.4938C140.813 22.4938 142.485 23.1404 143.755 24.303ZM154.448 27.112C154.571 26.8348 154.63 26.5342 154.62 26.232C154.629 25.9327 154.57 25.6352 154.448 25.361C154.322 25.1077 154.131 24.8915 153.893 24.734C153.638 24.5535 153.343 24.4353 153.032 24.389C152.66 24.3366 152.285 24.3148 151.91 24.324H150.783V28.144H151.91C152.285 28.153 152.66 28.1319 153.032 28.081C153.341 28.0375 153.637 27.9242 153.894 27.75C154.131 27.5874 154.322 27.3685 154.449 27.114M155.916 28.445C155.408 29.0227 154.724 29.4257 153.966 29.595L157.37 34.795L157.506 35.004H155.09L155.049 34.938L151.882 29.809H150.778V35.003H148.771V22.676H152.386C152.963 22.6691 153.539 22.7418 154.095 22.892C154.579 23.0238 155.032 23.2451 155.431 23.544C155.828 23.8561 156.146 24.2551 156.358 24.709C156.574 25.1782 156.682 25.6875 156.678 26.202C156.704 27.0162 156.433 27.8129 155.913 28.448M168.513 30.925C168.829 30.2749 168.988 29.562 168.976 28.842C168.987 28.1191 168.829 27.4034 168.513 26.75C168.276 26.2731 167.952 25.8424 167.558 25.479C167.159 25.1192 166.687 24.8466 166.172 24.679C165.592 24.488 164.984 24.3937 164.372 24.4H162.532V33.274H164.372C164.984 33.2803 165.592 33.1859 166.172 32.995C166.687 32.8274 167.159 32.5547 167.558 32.195C167.951 31.8329 168.275 31.4044 168.513 30.93M170.384 26.014C170.802 26.9024 171.018 27.8691 171.018 28.8475C171.018 29.8258 170.802 30.7925 170.384 31.681C170.058 32.3315 169.611 32.9165 169.066 33.406C168.457 33.9396 167.743 34.3462 166.969 34.601C166.133 34.8815 165.256 35.0218 164.373 35.016H160.527V22.677H164.373C165.256 22.6713 166.134 22.8116 166.97 23.092C167.743 23.3469 168.457 23.7531 169.066 24.286C169.611 24.7754 170.058 25.3604 170.384 26.011" fill="black"></path>
</g>
<defs>
<clipPath id="clip0_2065_796">
<rect width="171" height="59" fill="white"></rect>
</clipPath>
</defs>
</svg>
