<svg xmlns="http://www.w3.org/2000/svg" fill="none" viewBox="0 0 13 12" height="12" width="13">
<path stroke-linejoin="round" stroke-linecap="round" stroke="black" d="M3.5 1L2 3V10C2 10.2652 2.10536 10.5196 2.29289 10.7071C2.48043 10.8946 2.73478 11 3 11H10C10.2652 11 10.5196 10.8946 10.7071 10.7071C10.8946 10.5196 11 10.2652 11 10V3L9.5 1H3.5Z"></path>
<path stroke-linejoin="round" stroke-linecap="round" stroke="black" d="M2 3H11"></path>
<path stroke-linejoin="round" stroke-linecap="round" stroke="black" d="M8.5 5C8.5 5.53043 8.28929 6.03914 7.91421 6.41421C7.53914 6.78929 7.03043 7 6.5 7C5.96957 7 5.46086 6.78929 5.08579 6.41421C4.71071 6.03914 4.5 5.53043 4.5 5"></path>
</svg>
